<?xml version="1.0" encoding="UTF-8"?>
<svg id="Layer_1" data-name="Layer 1" xmlns="http://www.w3.org/2000/svg" viewBox="0 0 260 52">
  <defs>
    <style>
      .cls-1, .cls-2 {
        fill: none;
      }

      .cls-1, .cls-3 {
        stroke-width: 0px;
      }

      .cls-2 {
        stroke: #fff;
        stroke-width: 2px;
      }

      .cls-4 {
        opacity: .45;
      }

      .cls-5 {
        opacity: .5;
      }

      .cls-6 {
        isolation: isolate;
      }

      .cls-3 {
        fill: #fff;
      }
    </style>
  </defs>
  <g id="Botao_visualização" data-name="Botao visualização">
    <g id="Rectangle_312-2" data-name="Rectangle 312-2" class="cls-4">
      <rect class="cls-1" x="217" y="6" width="16" height="16"/>
      <rect class="cls-2" x="218" y="7" width="14" height="14"/>
    </g>
    <g id="Rectangle_393-2" data-name="Rectangle 393-2" class="cls-4">
      <rect class="cls-1" x="217" y="24" width="16" height="16"/>
      <rect class="cls-2" x="218" y="25" width="14" height="14"/>
    </g>
    <g id="Rectangle_391-2" data-name="Rectangle 391-2" class="cls-4">
      <rect class="cls-1" x="235" y="6" width="16" height="16"/>
      <rect class="cls-2" x="236" y="7" width="14" height="14"/>
    </g>
    <g id="Rectangle_392-2" data-name="Rectangle 392-2" class="cls-4">
      <rect class="cls-1" x="235" y="24" width="16" height="16"/>
      <rect class="cls-2" x="236" y="25" width="14" height="14"/>
    </g>
    <g id="Visualizar_em_grade" data-name="Visualizar em grade" class="cls-6">
      <g class="cls-5">
        <path class="cls-3" d="M194.2,25.8c.36-1.9,1.78-2.94,3.52-2.94s2.94.98,3.18,2.94h-6.7ZM197.66,32.16c2.32,0,4.22-1.2,4.8-3.18h-1.64c-.54,1.08-1.7,1.72-3.1,1.72-1.9,0-3.48-1.22-3.62-3.54h8.46c.02-.16.04-.4.04-.68,0-3.1-2.08-5.06-4.9-5.06-2.98,0-5.3,2.22-5.3,5.46s2.16,5.28,5.26,5.28ZM181.36,26.8c0-2.3,1.44-3.88,3.52-3.88s3.52,1.58,3.52,3.88-1.46,3.86-3.52,3.86-3.52-1.58-3.52-3.86ZM184.66,32.16c1.58,0,2.96-.72,3.68-1.78v1.62h1.68v-14.6h-1.68v5.8c-.72-1.06-2.1-1.78-3.68-1.78-2.82,0-5.02,2.24-5.02,5.38s2.2,5.36,5.02,5.36ZM169.78,28.98c0-1.06.88-1.72,2.5-1.72h3.24v.36c0,1.8-1.5,3.08-3.46,3.08-1.4,0-2.28-.68-2.28-1.72ZM171.82,32.12c1.64,0,3.02-.66,3.72-1.8.1,1.06.8,1.68,1.92,1.68h1.08v-1.42h-.46c-.64,0-.9-.26-.9-.92v-4.22c0-2.52-1.56-4.02-4.26-4.02-2.56,0-4.3,1.34-4.54,3.44h1.76c.2-1.2,1.18-1.94,2.72-1.94,1.68,0,2.66.86,2.66,2.52v.52h-3.34c-2.52,0-4.1,1.2-4.1,3.08s1.52,3.08,3.74,3.08ZM161.38,32h1.68v-5.3c0-2.42,1.22-3.58,3.24-3.58h.78v-1.54h-.78c-1.38,0-2.58.62-3.24,1.8v-1.8h-1.68v10.42ZM149.62,26.68c0-2.22,1.46-3.78,3.54-3.78s3.52,1.56,3.52,3.78-1.46,3.78-3.52,3.78-3.54-1.58-3.54-3.78ZM153.08,36.28c3.22,0,5.22-1.9,5.22-4.66v-10.04h-1.68v1.64c-.72-1.08-2.1-1.8-3.7-1.8-2.82,0-5.02,2.24-5.02,5.26s2.2,5.24,5.02,5.24c1.6,0,2.98-.7,3.7-1.78v1.48c0,1.92-1.32,3.2-3.44,3.2-1.74,0-3.02-.84-3.34-2.1h-1.78c.3,2.14,2.24,3.56,5.02,3.56ZM125.34,32h1.68v-5.78c0-2.08,1.32-3.26,2.86-3.26,1.38,0,2.36.94,2.36,2.88v6.16h1.68v-5.78c0-2.08,1.32-3.26,2.88-3.26,1.38,0,2.34.94,2.34,2.88v6.16h1.68v-6.56c0-2.56-1.46-4.02-3.58-4.02-1.56,0-2.96.8-3.64,2.14-.54-1.38-1.74-2.14-3.26-2.14-1.36,0-2.58.62-3.32,1.68v-1.52h-1.68v10.42ZM114.5,25.8c.36-1.9,1.78-2.94,3.52-2.94s2.94.98,3.18,2.94h-6.7ZM117.96,32.16c2.32,0,4.22-1.2,4.8-3.18h-1.64c-.54,1.08-1.7,1.72-3.1,1.72-1.9,0-3.48-1.22-3.62-3.54h8.46c.02-.16.04-.4.04-.68,0-3.1-2.08-5.06-4.9-5.06-2.98,0-5.3,2.22-5.3,5.46s2.16,5.28,5.26,5.28ZM100.9,32h1.68v-5.3c0-2.42,1.22-3.58,3.24-3.58h.78v-1.54h-.78c-1.38,0-2.58.62-3.24,1.8v-1.8h-1.68v10.42ZM90.4,28.98c0-1.06.88-1.72,2.5-1.72h3.24v.36c0,1.8-1.5,3.08-3.46,3.08-1.4,0-2.28-.68-2.28-1.72ZM92.44,32.12c1.64,0,3.02-.66,3.72-1.8.1,1.06.8,1.68,1.92,1.68h1.08v-1.42h-.46c-.64,0-.9-.26-.9-.92v-4.22c0-2.52-1.56-4.02-4.26-4.02-2.56,0-4.3,1.34-4.54,3.44h1.76c.2-1.2,1.18-1.94,2.72-1.94,1.68,0,2.66.86,2.66,2.52v.52h-3.34c-2.52,0-4.1,1.2-4.1,3.08s1.52,3.08,3.74,3.08ZM78.78,32h8.32v-1.46h-6.12l6-7.8v-1.16h-8.08v1.46h5.88l-6,7.82v1.14ZM74.34,18.54c0,.68.56,1.2,1.22,1.2s1.22-.52,1.22-1.2-.56-1.2-1.22-1.2-1.22.52-1.22,1.2ZM74.72,32h1.68v-10.42h-1.68v10.42ZM69.96,32h1.68v-14.6h-1.68v14.6ZM59.46,28.98c0-1.06.88-1.72,2.5-1.72h3.24v.36c0,1.8-1.5,3.08-3.46,3.08-1.4,0-2.28-.68-2.28-1.72ZM61.5,32.12c1.64,0,3.02-.66,3.72-1.8.1,1.06.8,1.68,1.92,1.68h1.08v-1.42h-.46c-.64,0-.9-.26-.9-.92v-4.22c0-2.52-1.56-4.02-4.26-4.02-2.56,0-4.3,1.34-4.54,3.44h1.76c.2-1.2,1.18-1.94,2.72-1.94,1.68,0,2.66.86,2.66,2.52v.52h-3.34c-2.52,0-4.1,1.2-4.1,3.08s1.52,3.08,3.74,3.08ZM50.26,32.16c1.5,0,2.78-.64,3.52-1.72v1.56h1.68v-10.42h-1.68v5.74c0,2.14-1.36,3.32-3.1,3.32-1.54,0-2.54-.92-2.54-2.86v-6.2h-1.68v6.6c0,2.48,1.48,3.98,3.8,3.98ZM40.08,32.16c2.64,0,4.18-1.36,4.18-3.28,0-1.52-.96-2.38-3-2.74l-1.68-.32c-1.66-.32-2.1-.72-2.1-1.4,0-.94.8-1.58,2.4-1.58s2.5.66,2.66,1.86h1.64c-.18-2.06-1.64-3.28-4.2-3.28s-4.14,1.28-4.14,3.08c0,1.36.86,2.3,2.98,2.7l1.66.3c1.64.3,2.14.7,2.14,1.5,0,1.04-.86,1.74-2.46,1.74s-2.66-.7-2.84-1.98h-1.64c.16,2.16,1.86,3.4,4.4,3.4ZM31.3,18.54c0,.68.56,1.2,1.22,1.2s1.22-.52,1.22-1.2-.56-1.2-1.22-1.2-1.22.52-1.22,1.2ZM31.68,32h1.68v-10.42h-1.68v10.42ZM22.48,32h2.04l5.34-14h-1.8l-4.54,12.08-4.54-12.08h-1.84l5.34,14Z"/>
      </g>
    </g>
  </g>
</svg>