<svg xmlns="http://www.w3.org/2000/svg" xmlns:xlink="http://www.w3.org/1999/xlink" width="287" height="52" viewBox="0 0 287 52"><defs><filter id="a" x="235" y="0" width="34" height="34" filterUnits="userSpaceOnUse"><feOffset dy="3" input="SourceAlpha"/><feGaussianBlur stdDeviation="3" result="b"/><feFlood flood-opacity="0.161"/><feComposite operator="in" in2="b"/><feComposite in="SourceGraphic"/></filter><filter id="c" x="235" y="18" width="34" height="34" filterUnits="userSpaceOnUse"><feOffset dy="3" input="SourceAlpha"/><feGaussianBlur stdDeviation="3" result="d"/><feFlood flood-opacity="0.161"/><feComposite operator="in" in2="d"/><feComposite in="SourceGraphic"/></filter><filter id="e" x="253" y="0" width="34" height="34" filterUnits="userSpaceOnUse"><feOffset dy="3" input="SourceAlpha"/><feGaussianBlur stdDeviation="3" result="f"/><feFlood flood-opacity="0.161"/><feComposite operator="in" in2="f"/><feComposite in="SourceGraphic"/></filter><filter id="g" x="253" y="18" width="34" height="34" filterUnits="userSpaceOnUse"><feOffset dy="3" input="SourceAlpha"/><feGaussianBlur stdDeviation="3" result="h"/><feFlood flood-opacity="0.161"/><feComposite operator="in" in2="h"/><feComposite in="SourceGraphic"/></filter></defs><g transform="translate(-1501 -217)"><g transform="matrix(1, 0, 0, 1, 1501, 217)" filter="url(#a)"><g transform="translate(244 6)" fill="none" stroke="#fff" stroke-width="2" opacity="0.448"><rect width="16" height="16" stroke="none"/><rect x="1" y="1" width="14" height="14" fill="none"/></g></g><g transform="matrix(1, 0, 0, 1, 1501, 217)" filter="url(#c)"><g transform="translate(244 24)" fill="none" stroke="#fff" stroke-width="2" opacity="0.448"><rect width="16" height="16" stroke="none"/><rect x="1" y="1" width="14" height="14" fill="none"/></g></g><g transform="matrix(1, 0, 0, 1, 1501, 217)" filter="url(#e)"><g transform="translate(262 6)" fill="none" stroke="#fff" stroke-width="2" opacity="0.448"><rect width="16" height="16" stroke="none"/><rect x="1" y="1" width="14" height="14" fill="none"/></g></g><g transform="matrix(1, 0, 0, 1, 1501, 217)" filter="url(#g)"><g transform="translate(262 24)" fill="none" stroke="#fff" stroke-width="2" opacity="0.448"><rect width="16" height="16" stroke="none"/><rect x="1" y="1" width="14" height="14" fill="none"/></g></g><text transform="translate(1501 225)" fill="#fff" font-size="24" font-family="BRSonoma-Regular, BR Sonoma" opacity="0.449"><tspan x="-111.984" y="24">Visualizar em grade</tspan></text></g></svg>