<svg xmlns="http://www.w3.org/2000/svg" xmlns:xlink="http://www.w3.org/1999/xlink" width="52" height="52" viewBox="0 0 52 52"><defs><filter id="a" x="0" y="0" width="34" height="34" filterUnits="userSpaceOnUse"><feOffset dy="3" input="SourceAlpha"/><feGaussianBlur stdDeviation="3" result="b"/><feFlood flood-opacity="0.161"/><feComposite operator="in" in2="b"/><feComposite in="SourceGraphic"/></filter><filter id="c" x="0" y="18" width="34" height="34" filterUnits="userSpaceOnUse"><feOffset dy="3" input="SourceAlpha"/><feGaussianBlur stdDeviation="3" result="d"/><feFlood flood-opacity="0.161"/><feComposite operator="in" in2="d"/><feComposite in="SourceGraphic"/></filter><filter id="e" x="18" y="0" width="34" height="34" filterUnits="userSpaceOnUse"><feOffset dy="3" input="SourceAlpha"/><feGaussianBlur stdDeviation="3" result="f"/><feFlood flood-opacity="0.161"/><feComposite operator="in" in2="f"/><feComposite in="SourceGraphic"/></filter><filter id="g" x="18" y="18" width="34" height="34" filterUnits="userSpaceOnUse"><feOffset dy="3" input="SourceAlpha"/><feGaussianBlur stdDeviation="3" result="h"/><feFlood flood-opacity="0.161"/><feComposite operator="in" in2="h"/><feComposite in="SourceGraphic"/></filter></defs><g transform="translate(-1736 -217)"><g transform="matrix(1, 0, 0, 1, 1736, 217)" filter="url(#a)"><g transform="translate(9 6)" fill="none" stroke="#fff" stroke-width="2" opacity="0.448"><rect width="16" height="16" stroke="none"/><rect x="1" y="1" width="14" height="14" fill="none"/></g></g><g transform="matrix(1, 0, 0, 1, 1736, 217)" filter="url(#c)"><g transform="translate(9 24)" fill="none" stroke="#fff" stroke-width="2" opacity="0.448"><rect width="16" height="16" stroke="none"/><rect x="1" y="1" width="14" height="14" fill="none"/></g></g><g transform="matrix(1, 0, 0, 1, 1736, 217)" filter="url(#e)"><g transform="translate(27 6)" fill="none" stroke="#fff" stroke-width="2" opacity="0.448"><rect width="16" height="16" stroke="none"/><rect x="1" y="1" width="14" height="14" fill="none"/></g></g><g transform="matrix(1, 0, 0, 1, 1736, 217)" filter="url(#g)"><g transform="translate(27 24)" fill="none" stroke="#fff" stroke-width="2" opacity="0.448"><rect width="16" height="16" stroke="none"/><rect x="1" y="1" width="14" height="14" fill="none"/></g></g></g></svg>