<svg id="LOGO-SVG-HOME" xmlns="http://www.w3.org/2000/svg" xmlns:xlink="http://www.w3.org/1999/xlink" width="179.906" height="71.943" viewBox="0 0 179.906 71.943">
  <defs>
    <clipPath id="clip-path">
      <path id="Path_105" data-name="Path 105" d="M0-23.3H179.906V-95.24H0Z" transform="translate(0 95.24)" fill="none"/>
    </clipPath>
    <clipPath id="clip-path-2">
      <rect id="Rectangle_154" data-name="Rectangle 154" width="42.297" height="20.36" fill="none"/>
    </clipPath>
    <clipPath id="clip-path-3">
      <rect id="Rectangle_155" data-name="Rectangle 155" width="28.266" height="34.678" fill="none"/>
    </clipPath>
    <clipPath id="clip-path-4">
      <rect id="Rectangle_156" data-name="Rectangle 156" width="24.038" height="27.112" fill="none"/>
    </clipPath>
    <clipPath id="clip-path-6">
      <rect id="Rectangle_157" data-name="Rectangle 157" width="27.971" height="34.79" fill="none"/>
    </clipPath>
    <clipPath id="clip-path-7">
      <rect id="Rectangle_158" data-name="Rectangle 158" width="27.97" height="34.79" fill="none"/>
    </clipPath>
    <clipPath id="clip-path-9">
      <rect id="Rectangle_159" data-name="Rectangle 159" width="27.935" height="20.382" fill="none"/>
    </clipPath>
    <clipPath id="clip-path-10">
      <rect id="Rectangle_160" data-name="Rectangle 160" width="42.275" height="20.382" fill="none"/>
    </clipPath>
  </defs>
  <g id="Group_126" data-name="Group 126" transform="translate(0.351 0.225)">
    <path id="Path_101" data-name="Path 101" d="M0-18.545H56.764L18.922-37.634,0-75.814Z" transform="translate(0 75.814)" fill="#fff"/>
  </g>
  <g id="Group_139" data-name="Group 139" clip-path="url(#clip-path)">
    <g id="Group_130" data-name="Group 130" transform="translate(22.123 37.889)" opacity="0.2">
      <g id="Group_129" data-name="Group 129">
        <g id="Group_128" data-name="Group 128" clip-path="url(#clip-path-2)">
          <g id="Group_127" data-name="Group 127" transform="translate(6.798 5.288)">
            <path id="Path_102" data-name="Path 102" d="M-9.293,0h-28.7L-9.358,14.317Z" transform="translate(37.993)" fill="#fff"/>
          </g>
        </g>
      </g>
    </g>
    <g id="Group_134" data-name="Group 134" transform="translate(-6.799 -5.063)" opacity="0.2">
      <g id="Group_133" data-name="Group 133">
        <g id="Group_132" data-name="Group 132" clip-path="url(#clip-path-3)">
          <g id="Group_131" data-name="Group 131" transform="translate(6.798 5.288)">
            <path id="Path_103" data-name="Path 103" d="M-4.75,0H-19.419l.352.686V0L-8.626,21.069l3.876,7.566Z" transform="translate(19.419)" fill="#fff"/>
          </g>
        </g>
      </g>
    </g>
    <g id="Group_138" data-name="Group 138" transform="translate(-6.447 -5.063)" opacity="0.2">
      <g id="Group_137" data-name="Group 137">
        <g id="Group_136" data-name="Group 136" clip-path="url(#clip-path-4)">
          <g id="Group_135" data-name="Group 135" transform="translate(6.798 5.288)">
            <path id="Path_104" data-name="Path 104" d="M0,0V.686L10.442,21.069Z" fill="#fff"/>
          </g>
        </g>
      </g>
    </g>
  </g>
  <g id="Group_140" data-name="Group 140" transform="translate(57.622)">
    <path id="Path_106" data-name="Path 106" d="M-18.617,0-32.992,28.747l-4.791,9.582-9.547,4.791L-56.8,38.4l-4.943-9.657L-76.111,0V28.747L-64.5,51.776l17.14,5.718,17.394-5.786,11.354-22.96Z" transform="translate(76.111)" fill="#fff"/>
  </g>
  <g id="Group_149" data-name="Group 149" clip-path="url(#clip-path)">
    <g id="Group_144" data-name="Group 144" transform="translate(93.943 -5.288)" opacity="0.2">
      <g id="Group_143" data-name="Group 143">
        <g id="Group_142" data-name="Group 142" clip-path="url(#clip-path-6)">
          <g id="Group_141" data-name="Group 141" transform="translate(6.799 5.288)">
            <path id="Path_107" data-name="Path 107" d="M-4.654,0H-19.028V28.747Z" transform="translate(19.028)" fill="#fff"/>
          </g>
        </g>
      </g>
    </g>
    <g id="Group_148" data-name="Group 148" transform="translate(50.823 -5.288)" opacity="0.2">
      <g id="Group_147" data-name="Group 147">
        <g id="Group_146" data-name="Group 146" clip-path="url(#clip-path-7)">
          <g id="Group_145" data-name="Group 145" transform="translate(6.799 5.288)">
            <path id="Path_108" data-name="Path 108" d="M-4.654,0H-19.027L-4.654,28.747Z" transform="translate(19.027)" fill="#fff"/>
          </g>
        </g>
      </g>
    </g>
  </g>
  <g id="Group_150" data-name="Group 150" transform="translate(122.551)">
    <path id="Path_110" data-name="Path 110" d="M0,0,14.338,14.339h7.17L0,57.355H57.355L19.118,38.236,57.355,0Z" fill="#fff"/>
  </g>
  <g id="Group_160" data-name="Group 160" clip-path="url(#clip-path)">
    <g id="Group_154" data-name="Group 154" transform="translate(115.752 -5.288)" opacity="0.2">
      <g id="Group_153" data-name="Group 153">
        <g id="Group_152" data-name="Group 152" clip-path="url(#clip-path-9)">
          <g id="Group_151" data-name="Group 151" transform="translate(6.798 5.288)">
            <path id="Path_111" data-name="Path 111" d="M0,0V14.339H14.338Z" fill="#fff"/>
          </g>
        </g>
      </g>
    </g>
    <g id="Group_158" data-name="Group 158" transform="translate(144.429 37.728)" opacity="0.2">
      <g id="Group_157" data-name="Group 157">
        <g id="Group_156" data-name="Group 156" clip-path="url(#clip-path-10)">
          <g id="Group_155" data-name="Group 155" transform="translate(6.799 5.288)">
            <path id="Path_112" data-name="Path 112" d="M-9.286,0H-37.964L-9.286,14.339Z" transform="translate(37.964)" fill="#fff"/>
          </g>
        </g>
      </g>
    </g>
    <g id="Group_159" data-name="Group 159" transform="translate(14.48 65.002)">
      <path id="Path_113" data-name="Path 113" d="M-1.415-1.45C-1.315.393-4.16.726-5.209-.311a2,2,0,0,1-.576-.963l.43-.043a1.6,1.6,0,0,0,1.3,1.184c2.116.3,2.593-1.2,1.953-1.949a2.985,2.985,0,0,0-1.682-.632,2.908,2.908,0,0,1-1.388-.454,1.479,1.479,0,0,1,.249-2.407c1-.6,3.1-.571,3.435,1.147l-.394.038a1.388,1.388,0,0,0-.248-.632A2.011,2.011,0,0,0-4.4-5.459,1.183,1.183,0,0,0-5-3.569c.413.44,1.355.431,2.188.641A1.6,1.6,0,0,1-1.415-1.45" transform="translate(5.785 5.927)" fill="#fff"/>
    </g>
  </g>
  <g id="Group_161" data-name="Group 161" transform="translate(19.831 65.115)">
    <path id="Path_115" data-name="Path 115" d="M-1.414,0V.349L-3.4.34V6.006l-.411.008V.349H-5.779V0Z" transform="translate(5.779)" fill="#fff"/>
  </g>
  <g id="Group_164" data-name="Group 164" clip-path="url(#clip-path)">
    <g id="Group_162" data-name="Group 162" transform="translate(25.65 65.084)">
      <path id="Path_116" data-name="Path 116" d="M-.7-1.974A2.068,2.068,0,0,1-2.769-3.7a7.4,7.4,0,0,1-.076-1.158l-.02-3.215h.412l.022,2.552v.391a3.721,3.721,0,0,0,.373,2.113,1.983,1.983,0,0,0,1.6.7A1.8,1.8,0,0,0,1.5-3.551a3.109,3.109,0,0,0,.1-.888l.025-3.627.4,0L1.99-4.435a2.208,2.208,0,0,1-.91,2.1A2.943,2.943,0,0,1-.7-1.974" transform="translate(2.866 8.07)" fill="#fff"/>
    </g>
    <g id="Group_163" data-name="Group 163" transform="translate(32.35 65.093)">
      <path id="Path_117" data-name="Path 117" d="M-1.64-1c0,2.287-1.385,2.942-3.328,2.942H-6.7V-4.071l1.89,0c1.5,0,3.174.444,3.174,3.078m-.422-.089c0-2.172-1.385-2.645-2.794-2.645l-1.462,0,0,2.621v.049l0,2.622h1.2c1.515,0,3.055-.228,3.055-2.646" transform="translate(6.704 4.075)" fill="#fff"/>
    </g>
  </g>
  <path id="Path_119" data-name="Path 119" d="M51.866-3.05h.408V-9.07h-.408Z" transform="translate(-12.687 74.162)" fill="#fff"/>
  <g id="Group_166" data-name="Group 166" clip-path="url(#clip-path)">
    <g id="Group_165" data-name="Group 165" transform="translate(41.346 65.043)">
      <path id="Path_120" data-name="Path 120" d="M-1.929-1a2.868,2.868,0,0,1-2.978,3.1A2.761,2.761,0,0,1-7.885-1,2.84,2.84,0,0,1-4.906-4.1,2.842,2.842,0,0,1-1.929-1m-.439.023A2.591,2.591,0,0,0-4.906-3.8,2.543,2.543,0,0,0-7.458-.987,2.446,2.446,0,0,0-4.906,1.782,2.53,2.53,0,0,0-2.368-.98" transform="translate(7.885 4.098)" fill="#fff"/>
    </g>
  </g>
  <g id="Group_167" data-name="Group 167" transform="translate(49.07 70.271)">
    <path id="Path_122" data-name="Path 122" d="M-.032,0V.837l-.1.835H.235L.353.837V0Z" transform="translate(0.131)" fill="#fff"/>
  </g>
  <g id="Group_168" data-name="Group 168" transform="translate(54.757 65.09)">
    <path id="Path_123" data-name="Path 123" d="M0-1.951V-7.974H3.941v.36L.393-7.607v2.335l3.25,0,0,.352L.385-4.917l0,2.966Z" transform="translate(0 7.974)" fill="#fff"/>
  </g>
  <g id="Group_170" data-name="Group 170" clip-path="url(#clip-path)">
    <g id="Group_169" data-name="Group 169" transform="translate(60.46 65.043)">
      <path id="Path_124" data-name="Path 124" d="M-1.929-1a2.868,2.868,0,0,1-2.978,3.1A2.761,2.761,0,0,1-7.885-1,2.84,2.84,0,0,1-4.906-4.1,2.842,2.842,0,0,1-1.929-1m-.438.023A2.591,2.591,0,0,0-4.906-3.8,2.543,2.543,0,0,0-7.458-.987,2.446,2.446,0,0,0-4.906,1.782,2.53,2.53,0,0,0-2.367-.98" transform="translate(7.885 4.098)" fill="#fff"/>
    </g>
  </g>
  <g id="Group_171" data-name="Group 171" transform="translate(67.345 65.115)">
    <path id="Path_126" data-name="Path 126" d="M-1.414,0V.349L-3.4.34V6.006l-.411.008V.349H-5.779V0Z" transform="translate(5.779)" fill="#fff"/>
  </g>
  <g id="Group_175" data-name="Group 175" clip-path="url(#clip-path)">
    <g id="Group_172" data-name="Group 172" transform="translate(73.117 65.043)">
      <path id="Path_127" data-name="Path 127" d="M-1.929-1a2.868,2.868,0,0,1-2.978,3.1A2.761,2.761,0,0,1-7.885-1,2.84,2.84,0,0,1-4.906-4.1,2.842,2.842,0,0,1-1.929-1m-.438.023A2.591,2.591,0,0,0-4.906-3.8,2.543,2.543,0,0,0-7.458-.987,2.446,2.446,0,0,0-4.906,1.782,2.53,2.53,0,0,0-2.367-.98" transform="translate(7.885 4.098)" fill="#fff"/>
    </g>
    <g id="Group_173" data-name="Group 173" transform="translate(80.598 65.027)">
      <path id="Path_128" data-name="Path 128" d="M-1.646-1.974h-.3L-2-2.633l-.014-.318a2.88,2.88,0,0,1-.158.313,2.117,2.117,0,0,1-1.8.769c-1.65,0-2.749-1.113-2.749-3.185,0-1.969,1.163-3.013,2.728-3.013A2.191,2.191,0,0,1-1.806-6.587l-.358.122a1.872,1.872,0,0,0-1.925-1.3c-1.251,0-2.194,1.008-2.194,2.726,0,2,1.045,2.819,2.271,2.819a1.814,1.814,0,0,0,1.97-1.347l-.011-1.068-1.7,0,0-.343h2.1Z" transform="translate(6.728 8.068)" fill="#fff"/>
    </g>
    <g id="Group_174" data-name="Group 174" transform="translate(87.532 65.092)">
      <path id="Path_129" data-name="Path 129" d="M-1.483-1.95h-.506a10.745,10.745,0,0,1-.534-1.361A1.677,1.677,0,0,0-4.25-4.558l-.677-.009h-.72L-5.658-1.95l-.4,0V-7.97H-4A2.766,2.766,0,0,1-2.511-7.7a1.569,1.569,0,0,1,.669,1.411,1.469,1.469,0,0,1-1.384,1.6c.428.124.826.519,1.123,1.4a9.779,9.779,0,0,0,.62,1.346m-2.5-3c.973,0,1.7-.2,1.7-1.341,0-.966-.456-1.346-1.628-1.341l-1.745,0,.011,2.693h.082Z" transform="translate(6.061 7.971)" fill="#fff"/>
    </g>
  </g>
  <g id="Group_176" data-name="Group 176" transform="translate(93.598 65.087)">
    <path id="Path_131" data-name="Path 131" d="M-1.741-1.949l-.439,0-.762-1.9h-3l-.759,1.9-.42,0,2.473-6.02h.429ZM-3.087-4.206-4.429-7.6-5.793-4.206Z" transform="translate(7.116 7.969)" fill="#fff"/>
  </g>
  <g id="Group_177" data-name="Group 177" transform="translate(100.664 65.09)">
    <path id="Path_132" data-name="Path 132" d="M0-1.951V-7.974H3.941v.36L.393-7.607v2.335l3.25,0,0,.352L.385-4.917l0,2.966Z" transform="translate(0 7.974)" fill="#fff"/>
  </g>
  <path id="Path_133" data-name="Path 133" d="M141.134-3.05h.407V-9.07h-.407Z" transform="translate(-34.523 74.162)" fill="#fff"/>
  <g id="Group_178" data-name="Group 178" transform="translate(108.702 65.087)">
    <path id="Path_134" data-name="Path 134" d="M-1.741-1.949l-.439,0-.762-1.9h-3l-.759,1.9-.42,0,2.473-6.02h.429ZM-3.088-4.206-4.429-7.6-5.793-4.206Z" transform="translate(7.116 7.969)" fill="#fff"/>
  </g>
  <g id="Group_181" data-name="Group 181" clip-path="url(#clip-path)">
    <g id="Group_179" data-name="Group 179" transform="translate(118.965 64.901)">
      <path id="Path_135" data-name="Path 135" d="M-1.646-2.013h-.548l-.676-.758a2.335,2.335,0,0,1-3.225.494c-1.009-.88-.87-2.455.826-3.153,0,0-.418-.527-.587-.758A1.209,1.209,0,0,1-5.081-8.2a1.351,1.351,0,0,1,1.671.906,1.481,1.481,0,0,1-.4,1.317,3.723,3.723,0,0,1-.883.645l1.771,1.956a3.353,3.353,0,0,0,.382-1.2l.355.171a3.915,3.915,0,0,1-.489,1.3ZM-3.108-3.051-5.043-5.173C-6.608-4.559-6.568-3.306-5.9-2.6a1.926,1.926,0,0,0,2.794-.45M-4.914-5.586a2.476,2.476,0,0,0,.848-.6A.989.989,0,0,0-4.8-7.922c-.709.051-1.142.593-.944,1.184a5.639,5.639,0,0,0,.83,1.151" transform="translate(6.728 8.231)" fill="#fff"/>
    </g>
    <g id="Group_180" data-name="Group 180" transform="translate(129.046 65.002)">
      <path id="Path_136" data-name="Path 136" d="M-1.415-1.45C-1.315.393-4.16.726-5.209-.311a1.989,1.989,0,0,1-.576-.963l.43-.043a1.6,1.6,0,0,0,1.3,1.184c2.115.3,2.593-1.2,1.953-1.949a2.987,2.987,0,0,0-1.682-.632,2.908,2.908,0,0,1-1.388-.454,1.479,1.479,0,0,1,.249-2.407c1-.6,3.1-.571,3.435,1.147l-.394.038a1.38,1.38,0,0,0-.247-.632A2.011,2.011,0,0,0-4.4-5.459,1.183,1.183,0,0,0-5-3.569c.414.44,1.356.431,2.188.641A1.6,1.6,0,0,1-1.415-1.45" transform="translate(5.785 5.927)" fill="#fff"/>
    </g>
  </g>
  <g id="Group_182" data-name="Group 182" transform="translate(134.397 65.115)">
    <path id="Path_138" data-name="Path 138" d="M-1.414,0V.349L-3.4.34V6.006l-.411.008V.349H-5.779V0Z" transform="translate(5.779)" fill="#fff"/>
  </g>
  <g id="Group_183" data-name="Group 183" transform="translate(140.172 65.101)">
    <path id="Path_139" data-name="Path 139" d="M-1.741,0-4.225,3.436V6.008h-.408V3.436L-7.117,0l.489,0,2.2,3.028L-2.239,0Z" transform="translate(7.117 0.005)" fill="#fff"/>
  </g>
  <g id="Group_184" data-name="Group 184" transform="translate(147.313 65.092)">
    <path id="Path_140" data-name="Path 140" d="M-1.276-1.834v.36h-3.94v-6.02l.393,0,.017,5.657Z" transform="translate(5.216 7.496)" fill="#fff"/>
  </g>
  <path id="Path_141" data-name="Path 141" d="M202.581-3.05h.408V-9.07h-.408Z" transform="translate(-49.553 74.162)" fill="#fff"/>
  <g id="Group_185" data-name="Group 185" transform="translate(155.44 65.077)">
    <path id="Path_142" data-name="Path 142" d="M-1.5-.161h0V5.378l-.4,0-.011-.016L-5.767.049l-.008,5.33-.366,0V-.643h.32l.008.01L-1.87,4.777-1.888-.657H-1.5Z" transform="translate(6.141 0.657)" fill="#fff"/>
  </g>
  <g id="Group_187" data-name="Group 187" clip-path="url(#clip-path)">
    <g id="Group_186" data-name="Group 186" transform="translate(161.846 65.027)">
      <path id="Path_143" data-name="Path 143" d="M-1.646-1.974h-.3L-2-2.633l-.013-.318a3.026,3.026,0,0,1-.159.313,2.117,2.117,0,0,1-1.8.769c-1.65,0-2.749-1.113-2.749-3.185,0-1.969,1.163-3.013,2.728-3.013A2.191,2.191,0,0,1-1.806-6.587l-.358.122a1.872,1.872,0,0,0-1.925-1.3c-1.251,0-2.194,1.008-2.194,2.726,0,2,1.045,2.819,2.271,2.819a1.814,1.814,0,0,0,1.97-1.347l-.011-1.068-1.7,0,0-.343h2.1Z" transform="translate(6.728 8.068)" fill="#fff"/>
    </g>
  </g>
</svg>
